name C:\Users\r0593348\3dpredictsim\Results\MidTarsalJoint\Fal_s1_bCst_PF_Natali2010_ls150_MT_k800_MTP_T5_ig21.mot
datacolumns 128
datarows 4
range 1.66669501 1.70002891
endheader
time	pelvis_tilt	pelvis_list	pelvis_rotation	pelvis_tx	pelvis_ty	pelvis_tz	hip_flexion_l	hip_adduction_l	hip_rotation_l	hip_flexion_r	hip_adduction_r	hip_rotation_r	knee_angle_l	knee_angle_r	ankle_angle_l	ankle_angle_r	subtalar_angle_l	subtalar_angle_r	mtj_angle_l	mtj_angle_r	mtp_angle_l	mtp_angle_r	lumbar_extension	lumbar_bending	lumbar_rotation	arm_flex_l	arm_add_l	arm_rot_l	arm_flex_r	arm_add_r	arm_rot_r	elbow_flex_l	elbow_flex_r	pro_sup_l	pro_sup_r	glut_med1_l/activation	glut_med2_l/activation	glut_med3_l/activation	glut_min1_l/activation	glut_min2_l/activation	glut_min3_l/activation	semimem_l/activation	semiten_l/activation	bifemlh_l/activation	bifemsh_l/activation	sar_l/activation	add_long_l/activation	add_brev_l/activation	add_mag1_l/activation	add_mag2_l/activation	add_mag3_l/activation	tfl_l/activation	pect_l/activation	grac_l/activation	glut_max1_l/activation	glut_max2_l/activation	glut_max3_l/activation	iliacus_l/activation	psoas_l/activation	quad_fem_l/activation	gem_l/activation	peri_l/activation	rect_fem_l/activation	vas_med_l/activation	vas_int_l/activation	vas_lat_l/activation	med_gas_l/activation	lat_gas_l/activation	soleus_l/activation	tib_post_l/activation	flex_dig_l/activation	flex_hal_l/activation	tib_ant_l/activation	per_brev_l/activation	per_long_l/activation	per_tert_l/activation	ext_dig_l/activation	ext_hal_l/activation	ercspn_l/activation	intobl_l/activation	extobl_l/activation	glut_med1_r/activation	glut_med2_r/activation	glut_med3_r/activation	glut_min1_r/activation	glut_min2_r/activation	glut_min3_r/activation	semimem_r/activation	semiten_r/activation	bifemlh_r/activation	bifemsh_r/activation	sar_r/activation	add_long_r/activation	add_brev_r/activation	add_mag1_r/activation	add_mag2_r/activation	add_mag3_r/activation	tfl_r/activation	pect_r/activation	grac_r/activation	glut_max1_r/activation	glut_max2_r/activation	glut_max3_r/activation	iliacus_r/activation	psoas_r/activation	quad_fem_r/activation	gem_r/activation	peri_r/activation	rect_fem_r/activation	vas_med_r/activation	vas_int_r/activation	vas_lat_r/activation	med_gas_r/activation	lat_gas_r/activation	soleus_r/activation	tib_post_r/activation	flex_dig_r/activation	flex_hal_r/activation	tib_ant_r/activation	per_brev_r/activation	per_long_r/activation	per_tert_r/activation	ext_dig_r/activation	ext_hal_r/activation	ercspn_r/activation	intobl_r/activation	extobl_r/activation	
          1.66669501	         -2.93017646	          1.91172516	         -4.90485144	          2.08336876	          0.92001636	          0.00190056	         29.60221805	          3.16234432	         -2.57639955	        -17.14823414	         -0.79129084	          6.66375565	        -12.71565530	         -6.57116690	          5.56719262	         -0.59267661	         -2.59190417	          8.79362178	         -0.06393601	          1.92353094	          0.49544801	         17.96563786	         -2.17111630	         -0.19053792	          1.83245344	         -4.89604989	        -13.45996567	          5.30783575	          4.48574760	        -13.45199256	         14.92465606	         18.03890769	         34.29311700	         86.51662706	         86.51662706	          0.05000078	          0.05000049	          0.05925914	          0.05000023	          0.05000033	          0.05000150	          0.05925982	          0.05925961	          0.20492285	          0.05000042	          0.05000059	          0.11850084	          0.21834335	          0.18865630	          0.16291668	          0.10746321	          0.05925927	          0.05002878	          0.08893329	          0.05956671	          0.07023347	          0.10303117	          0.05000011	          0.05000014	          0.18914199	          0.05000264	          0.05000040	          0.05000028	          0.09838304	          0.09855854	          0.08535002	          0.05054089	          0.05000111	          0.05925915	          0.05000015	          0.05000077	          0.05000076	          0.49767359	          0.27281495	          0.16604601	          0.16826136	          0.46634588	          0.14119625	          0.05925946	          0.11860534	          0.10779392	          0.32569078	          0.09869268	          0.07725196	          0.32069069	          0.20797409	          0.10934126	          0.05000137	          0.05000030	          0.05000019	          0.06693721	          0.10503936	          0.05000025	          0.05000018	          0.05000023	          0.05000062	          0.05000044	          0.32053926	          0.05000096	          0.05000047	          0.05000658	          0.05000235	          0.05000102	          0.38356694	          0.61904906	          0.05000016	          0.05000052	          0.05000597	          0.19200541	          0.05000059	          0.05000049	          0.05000048	          0.30046357	          0.40596587	          0.32073518	          0.28727925	          0.29185051	          0.38181124	          0.05000006	          0.05925988	          0.12762274	          0.05000044	          0.05000010	          0.05000034	          0.05000001	          0.05000001	          0.05000004	
          1.67780631	         -2.92729131	          2.00722561	         -5.17565197	          2.09997400	          0.91906867	          0.00169157	         28.99839365	          3.53889325	         -2.40134167	        -17.03456150	         -1.08826732	          6.48041570	        -12.61210453	         -8.44394954	          4.97993335	         -1.20427788	         -3.00418455	          9.76910590	         -0.05843576	          1.52452847	          0.49886078	         19.27951966	         -1.98488277	         -0.40516889	          1.90486769	         -5.69087906	        -13.45840736	          5.01862600	          4.21871847	        -13.45967280	         15.25755983	         17.59754437	         35.41787616	         86.51662706	         86.51662706	          0.05000041	          0.05000045	          0.05000016	          0.05000269	          0.05000116	          0.05000033	          0.05000039	          0.05000030	          0.17564104	          0.05000043	          0.05003253	          0.11685440	          0.19931346	          0.27121515	          0.18656079	          0.10207815	          0.05000019	          0.05046979	          0.07503797	          0.05025968	          0.05925951	          0.11665995	          0.05002917	          0.05534367	          0.53419057	          0.13858224	          0.08277204	          0.07023382	          0.19249382	          0.19215581	          0.16595241	          0.05000001	          0.05000004	          0.05000000	          0.05000028	          0.05000079	          0.05000103	          0.55274054	          0.23113306	          0.17760272	          0.32724252	          0.49110015	          0.14538120	          0.05000004	          0.10007300	          0.09095089	          0.27480099	          0.08327176	          0.06518123	          0.27058223	          0.17547776	          0.09225650	          0.05000281	          0.05000059	          0.05000076	          0.05647821	          0.08862699	          0.11073320	          0.10420265	          0.05789361	          0.05002155	          0.05001663	          0.27045453	          0.08234374	          0.05001633	          0.05000281	          0.05000195	          0.05000229	          0.32363384	          0.56253828	          0.05000107	          0.05539436	          0.05925947	          0.16225928	          0.05003325	          0.17775073	          0.14950428	          0.25351548	          0.34253284	          0.27775285	          0.25690260	          0.24624965	          0.32218625	          0.05000004	          0.05000058	          0.12422008	          0.05000015	          0.05000004	          0.05000022	          0.05000015	          0.07023366	          0.05000047	
          1.68891761	         -2.92062605	          2.10686759	         -5.42239795	          2.11688679	          0.91815597	          0.00150451	         28.26962719	          3.83829249	         -2.16175461	        -16.84769647	         -1.38589728	          6.28615437	        -12.97432430	        -10.43709914	          4.39148574	         -1.97270091	         -3.44089554	         10.71572038	         -0.16376284	          1.06495229	          0.47340070	         20.56142522	         -1.77734554	         -0.63256467	          1.96598432	         -6.51868041	        -13.46428101	          4.77853896	          3.87880617	        -13.46404516	         15.52759167	         17.20464267	         36.52291662	         86.51662706	         86.51662706	          0.26882466	          0.05000016	          0.22609564	          0.05000036	          0.05000029	          0.25744133	          0.07332100	          0.07633954	          0.15695818	          0.05000023	          0.05000046	          0.09859592	          0.22706610	          0.22883742	          0.15741074	          0.12043981	          0.05000136	          0.05927372	          0.11433303	          0.05000016	          0.05000023	          0.09843170	          0.05925942	          0.05726107	          0.45072213	          0.11692855	          0.14843806	          0.05925964	          0.16241632	          0.16213113	          0.14002205	          0.05448836	          0.05681969	          0.05572630	          0.05000058	          0.05000169	          0.05000209	          0.47150749	          0.26003091	          0.14985197	          0.27611066	          0.52727876	          0.12266512	          0.05000008	          0.11398775	          0.07673962	          0.36327857	          0.07026039	          0.05499658	          0.22830348	          0.14805905	          0.07784127	          0.05000183	          0.05000059	          0.05000044	          0.05000017	          0.07477913	          0.14764645	          0.12249126	          0.05926162	          0.05925333	          0.05616081	          0.22819669	          0.08327330	          0.05001296	          0.05003188	          0.05003185	          0.05103464	          0.27306560	          0.53852878	          0.05722977	          0.05000121	          0.05000017	          0.13690597	          0.10516769	          0.14997723	          0.12614429	          0.21390312	          0.28901134	          0.23435335	          0.21676109	          0.20777285	          0.27184418	          0.05000002	          0.05000100	          0.15531535	          0.05000013	          0.05000004	          0.05000016	          0.05326118	          0.05925950	          0.05900881	
          1.70002891	         -2.91188703	          2.20947813	         -5.63794762	          2.13393380	          0.91728385	          0.00130899	         27.43559586	          4.09106082	         -1.91217868	        -16.56338046	         -1.68051443	          6.08981619	        -13.34824214	        -12.57301087	          3.90932775	         -2.91314294	         -3.87833692	         11.61973019	         -0.13376038	          0.58931791	          0.48272279	         21.72873650	         -1.56688244	         -0.86989053	          2.01857711	         -7.33800242	        -13.47563987	          4.60031678	          3.49100322	        -13.47158581	         15.74964937	         16.83958712	         37.59849869	         86.51662706	         86.51662706	          0.32897201	          0.26880703	          0.31169115	          0.11672174	          0.21908004	          0.21721592	          0.06186456	          0.07984396	          0.13243317	          0.07023587	          0.05000629	          0.08319012	          0.19158655	          0.19308125	          0.13281535	          0.14639277	          0.05000045	          0.05001238	          0.09646857	          0.20298846	          0.15252675	          0.11839435	          0.05000012	          0.05000011	          0.38029587	          0.09865843	          0.12524448	          0.05000024	          0.13704069	          0.14896608	          0.11814507	          0.05000010	          0.05000017	          0.05000002	          0.05000002	          0.05000011	          0.05000011	          0.58668779	          0.28924209	          0.15726705	          0.56996209	          0.56056351	          0.25066118	          0.07260601	          0.09617699	          0.06474890	          0.31187177	          0.05928207	          0.05000011	          0.33063658	          0.12492459	          0.06567846	          0.05000375	          0.05000024	          0.05000021	          0.05000033	          0.06309541	          0.13362749	          0.10335195	          0.05000221	          0.05000104	          0.05000062	          0.25077409	          0.07026450	          0.05000075	          0.05000155	          0.05000093	          0.05000065	          0.23039857	          0.49079438	          0.05000012	          0.05000085	          0.05000044	          0.11729547	          0.08873720	          0.13376449	          0.11692680	          0.18048028	          0.24385268	          0.19773512	          0.18289173	          0.17530803	          0.22936805	          0.05000148	          0.08510159	          0.15330742	          0.05000049	          0.09717205	          0.05000069	          0.07333669	          0.05000008	          0.05000003	
